<svg xmlns="http://www.w3.org/2000/svg" width="1200" height="800" viewBox="0 0 1200 800" role="img" aria-labelledby="title desc">
  <title id="title">TeleHealthx virtual care illustration</title>
  <desc id="desc">Abstract healthcare illustration with devices and medical cross motif.</desc>
  <defs>
    <linearGradient id="bg" x1="0" y1="0" x2="1" y2="1">
      <stop offset="0%" stop-color="#e0f2fe" />
      <stop offset="100%" stop-color="#ecfeff" />
    </linearGradient>
    <linearGradient id="panel" x1="0" y1="0" x2="0" y2="1">
      <stop offset="0%" stop-color="#ffffff" />
      <stop offset="100%" stop-color="#f8fafc" />
    </linearGradient>
  </defs>
  <rect width="1200" height="800" fill="url(#bg)" />
  <circle cx="1030" cy="140" r="120" fill="#bae6fd" opacity="0.55" />
  <circle cx="180" cy="680" r="160" fill="#a7f3d0" opacity="0.35" />
  <rect x="180" y="120" width="840" height="560" rx="36" fill="url(#panel)" stroke="#cbd5e1" stroke-width="3" />
  <rect x="250" y="190" width="410" height="380" rx="24" fill="#0f172a" />
  <rect x="272" y="212" width="366" height="336" rx="18" fill="#e2e8f0" />
  <rect x="720" y="210" width="220" height="120" rx="20" fill="#f0f9ff" stroke="#bae6fd" stroke-width="2" />
  <rect x="720" y="350" width="220" height="220" rx="20" fill="#f8fafc" stroke="#cbd5e1" stroke-width="2" />
  <circle cx="420" cy="355" r="92" fill="#22d3ee" opacity="0.2" />
  <circle cx="420" cy="355" r="62" fill="#0284c7" opacity="0.35" />
  <path d="M392 355h56M420 327v56" stroke="#0369a1" stroke-width="14" stroke-linecap="round" />
  <circle cx="830" cy="270" r="26" fill="#0ea5e9" opacity="0.15" />
  <path d="M817 270h26M830 257v26" stroke="#0284c7" stroke-width="6" stroke-linecap="round" />
  <rect x="760" y="390" width="140" height="18" rx="9" fill="#cbd5e1" />
  <rect x="760" y="426" width="170" height="14" rx="7" fill="#e2e8f0" />
  <rect x="760" y="454" width="120" height="14" rx="7" fill="#e2e8f0" />
  <rect x="760" y="482" width="160" height="14" rx="7" fill="#e2e8f0" />
  <rect x="760" y="510" width="130" height="14" rx="7" fill="#e2e8f0" />
</svg>
