<svg xmlns="http://www.w3.org/2000/svg" width="1200" height="800" viewBox="0 0 1200 800" role="img" aria-labelledby="title desc">
  <title id="title">TeleHealthx appointment illustration</title>
  <desc id="desc">Calendar and consultation themed illustration for appointment booking.</desc>
  <defs>
    <linearGradient id="bg2" x1="0" y1="0" x2="1" y2="1">
      <stop offset="0%" stop-color="#dbeafe" />
      <stop offset="100%" stop-color="#f0fdf4" />
    </linearGradient>
  </defs>
  <rect width="1200" height="800" fill="url(#bg2)" />
  <circle cx="1020" cy="640" r="140" fill="#bfdbfe" opacity="0.45" />
  <circle cx="150" cy="140" r="110" fill="#bbf7d0" opacity="0.35" />
  <rect x="210" y="120" width="780" height="560" rx="30" fill="#ffffff" stroke="#cbd5e1" stroke-width="3" />
  <rect x="270" y="170" width="420" height="460" rx="24" fill="#f8fafc" stroke="#dbeafe" stroke-width="2" />
  <rect x="740" y="210" width="190" height="190" rx="20" fill="#f0f9ff" stroke="#7dd3fc" stroke-width="2" />
  <rect x="760" y="230" width="150" height="20" rx="10" fill="#38bdf8" opacity="0.3" />
  <rect x="760" y="270" width="150" height="16" rx="8" fill="#e2e8f0" />
  <rect x="760" y="302" width="120" height="16" rx="8" fill="#e2e8f0" />
  <rect x="760" y="334" width="140" height="16" rx="8" fill="#e2e8f0" />
  <rect x="740" y="430" width="190" height="200" rx="20" fill="#f8fafc" stroke="#cbd5e1" stroke-width="2" />
  <rect x="770" y="470" width="130" height="130" rx="18" fill="#e0f2fe" />
  <path d="M810 535h50M835 510v50" stroke="#0284c7" stroke-width="10" stroke-linecap="round" />
  <g fill="#e2e8f0">
    <rect x="300" y="230" width="70" height="70" rx="10" />
    <rect x="390" y="230" width="70" height="70" rx="10" />
    <rect x="480" y="230" width="70" height="70" rx="10" />
    <rect x="570" y="230" width="70" height="70" rx="10" />
    <rect x="300" y="320" width="70" height="70" rx="10" />
    <rect x="390" y="320" width="70" height="70" rx="10" />
    <rect x="480" y="320" width="70" height="70" rx="10" />
    <rect x="570" y="320" width="70" height="70" rx="10" />
    <rect x="300" y="410" width="70" height="70" rx="10" />
    <rect x="390" y="410" width="70" height="70" rx="10" />
    <rect x="480" y="410" width="70" height="70" rx="10" />
    <rect x="570" y="410" width="70" height="70" rx="10" />
  </g>
  <rect x="480" y="320" width="70" height="70" rx="10" fill="#7dd3fc" />
  <path d="M500 355h30M515 340v30" stroke="#0369a1" stroke-width="8" stroke-linecap="round" />
</svg>
