<svg width="520" height="520" viewBox="0 0 520 520" fill="none" xmlns="http://www.w3.org/2000/svg">
  <g stroke="currentColor" stroke-width="1.4" stroke-linecap="round" stroke-linejoin="round" color="#94A3B8">
    <path d="M52 70H68M60 62V78" />
    <path d="M133 112C125 112 118 119 118 127C118 143 136 156 151 166C166 156 184 143 184 127C184 119 177 112 169 112C162 112 156 116 153 122C150 116 144 112 137 112H133Z" />
    <path d="M232 84H250L256 72L265 100L274 82H296" />
    <rect x="330" y="58" width="36" height="20" rx="10" />
    <path d="M348 58V78" />

    <path d="M83 238H99M91 230V246" />
    <path d="M180 228H198L204 216L212 246L221 226H241" />
    <path d="M294 208C286 208 279 215 279 223C279 239 297 252 312 262C327 252 345 239 345 223C345 215 338 208 330 208C323 208 317 212 314 218C311 212 305 208 298 208H294Z" />
    <rect x="398" y="204" width="34" height="18" rx="9" />
    <path d="M415 204V222" />

    <path d="M62 362H78M70 354V370" />
    <path d="M158 346C150 346 143 353 143 361C143 377 161 390 176 400C191 390 209 377 209 361C209 353 202 346 194 346C187 346 181 350 178 356C175 350 169 346 162 346H158Z" />
    <rect x="274" y="334" width="36" height="20" rx="10" />
    <path d="M292 334V354" />
    <path d="M348 380H366L372 367L380 395L389 376H408" />

    <path d="M122 468H138M130 460V476" />
    <rect x="224" y="448" width="34" height="18" rx="9" />
    <path d="M241 448V466" />
    <path d="M312 460C304 460 297 467 297 475C297 491 315 504 330 514C345 504 363 491 363 475C363 467 356 460 348 460C341 460 335 464 332 470C329 464 323 460 316 460H312Z" />
    <path d="M422 448H442L448 436L456 466L465 446H486" />
  </g>
</svg>
